HIERARCHY
ROOT Hips
{
	OFFSET	0.00	0.00	0.00
	CHANNELS 6 Xposition Yposition Zposition Zrotation Xrotation Yrotation
	JOINT LeftUpLeg
	{
		OFFSET	 0.126116	-0.065224	 0.014019
		CHANNELS 3 Zrotation Xrotation Yrotation
		JOINT LeftLeg
		{
			OFFSET	 0.000000	 0.569914	 0.000000
			CHANNELS 3 Zrotation Xrotation Yrotation
			JOINT LeftFoot
			{
				OFFSET	 0.000000	 0.544423	 0.000000
				CHANNELS 3 Zrotation Xrotation Yrotation
				JOINT LeftToeBase
				{
					OFFSET	 0.000000	 0.207117	 0.000000
					CHANNELS 3 Zrotation Xrotation Yrotation
					End Site
					{
						OFFSET	 0.000000	 0.207117	 0.000000
					}
				}
			}
		}
	}
	JOINT RightUpLeg
	{
		OFFSET	-0.124023	-0.065224	 0.008373
		CHANNELS 3 Zrotation Xrotation Yrotation
		JOINT RightLeg
		{
			OFFSET	 0.000000	 0.570047	 0.000000
			CHANNELS 3 Zrotation Xrotation Yrotation
			JOINT RightFoot
			{
				OFFSET	 0.000000	 0.544354	 0.000000
				CHANNELS 3 Zrotation Xrotation Yrotation
				JOINT RightToeBase
				{
					OFFSET	 0.000000	 0.207540	 0.000000
					CHANNELS 3 Zrotation Xrotation Yrotation
					End Site
					{
						OFFSET	 0.000000	 0.207540	 0.000000
					}
				}
			}
		}
	}
	JOINT Spine
	{
		OFFSET	 0.000184	 0.117403	 0.007763
		CHANNELS 3 Zrotation Xrotation Yrotation
		JOINT Spine1
		{
			OFFSET	 0.000000	 0.137269	 0.000000
			CHANNELS 3 Zrotation Xrotation Yrotation
			JOINT Spine2
			{
				OFFSET	 0.000000	 0.156879	 0.000000
				CHANNELS 3 Zrotation Xrotation Yrotation
				JOINT LeftShoulder
				{
					OFFSET	 0.080501	 0.160143	 0.002496
					CHANNELS 3 Zrotation Xrotation Yrotation
					JOINT LeftArm
					{
						OFFSET	 0.000000	 0.164363	 0.000000
						CHANNELS 3 Zrotation Xrotation Yrotation
						JOINT LeftForeArm
						{
							OFFSET	 0.000000	 0.364576	 0.000000
							CHANNELS 3 Zrotation Xrotation Yrotation
							JOINT LeftHand
							{
								OFFSET	 0.000000	 0.360812	 0.000000
								CHANNELS 3 Zrotation Xrotation Yrotation
								JOINT LeftHandIndex1
								{
									OFFSET	 0.000000	 0.086006	 0.000000
									CHANNELS 3 Zrotation Xrotation Yrotation
									JOINT LeftHandIndex2
									{
										OFFSET	 0.000000	 0.047237	 0.000000
										CHANNELS 3 Zrotation Xrotation Yrotation
										JOINT LeftHandIndex3
										{
											OFFSET	-0.004284	 0.038165	 0.000551
											CHANNELS 3 Zrotation Xrotation Yrotation
											End Site
											{
												OFFSET	-0.004284	 0.038165	 0.000551
											}
										}
									}
								}
							}
						}
					}
				}
				JOINT Neck
				{
					OFFSET	 0.000000	 0.176489	 0.000000
					CHANNELS 3 Zrotation Xrotation Yrotation
					JOINT Head
					{
						OFFSET	 0.000000	 0.077941	 0.001747
						CHANNELS 3 Zrotation Xrotation Yrotation
						End Site
						{
							OFFSET	 0.000000	 0.077941	 0.001747
						}
					}
				}
				JOINT RightShoulder
				{
					OFFSET	-0.080363	 0.159706	-0.000306
					CHANNELS 3 Zrotation Xrotation Yrotation
					JOINT RightArm
					{
						OFFSET	 0.000000	 0.164196	 0.000000
						CHANNELS 3 Zrotation Xrotation Yrotation
						JOINT RightForeArm
						{
							OFFSET	 0.000000	 0.365611	 0.000000
							CHANNELS 3 Zrotation Xrotation Yrotation
							JOINT RightHand
							{
								OFFSET	 0.000000	 0.360648	 0.000000
								CHANNELS 3 Zrotation Xrotation Yrotation
								JOINT RightHandIndex1
								{
									OFFSET	 0.000000	 0.069977	 0.000000
									CHANNELS 3 Zrotation Xrotation Yrotation
									JOINT RightHandIndex2
									{
										OFFSET	 0.000000	 0.052305	 0.000000
										CHANNELS 3 Zrotation Xrotation Yrotation
										JOINT RightHandIndex3
										{
											OFFSET	 0.009002	 0.042196	 0.000782
											CHANNELS 3 Zrotation Xrotation Yrotation
											End Site
											{
												OFFSET	 0.009002	 0.042196	 0.000782
											}
										}
									}
								}
							}
						}
					}
				}
			}
		}
	}
}
MOTION
Frames:    13
Frame Time: 0.03333334
-0.091461	 1.290643	 0.104539	 9.528644	-1.576920	-177.034000	-158.217900	 15.923910	-19.621190	 4.715492	-17.159980	 6.919384	-3.132419	 50.120520	-5.847395	 1.955339	 36.447860	-2.914909	 172.665200	 12.785380	 52.906240	-1.847837	-23.054700	 12.114600	-2.249764	 56.354370	-7.595775	-3.026840	 46.659480	 3.710574	-3.096021	 3.347391	-14.491650	 1.494501	 8.878063	-1.732814	-2.667354	-9.708231	 9.558483	-99.209140	 2.992685	 93.318610	 57.665370	 45.264760	-7.797036	 28.084790	-1.286508	-1.255272	 23.827110	-19.247570	-9.905728	 3.894535	 49.603610	-2.092326	-8.045640	 57.970890	 8.060207	 6.523453	 32.470940	 0.056818	 4.757528	-9.657251	-2.233155	 7.707992	-6.281933	 0.577721	 73.254910	 4.163509	-48.051510	-20.555120	 15.841340	 9.495901	-32.760730	-1.136590	 1.220026	-17.937160	-31.928000	-5.494636	-4.812027	-8.627824	-0.272308	 12.027860	 12.035690	-2.684135	-8.319518	 1.234690	 0.227508
-0.022180	 1.313124	 0.085259	 12.551110	-3.161632	-162.482400	-157.767400	 17.138230	-7.070855	 1.319009	-4.941687	 8.049654	 2.615196	 44.602100	-8.854402	 1.617769	 32.570130	-2.922374	 174.233700	 16.598500	 52.371030	-2.209574	-26.970780	 6.566859	-3.828897	 52.639650	 0.116351	-4.094175	 54.105090	 4.505394	-4.474064	 5.927507	 0.400158	-2.113561	 10.381980	 3.283195	-1.040859	-10.154660	 3.401185	-101.288900	 3.833475	 93.481750	 66.918860	 36.117140	-20.571970	 7.567542	-0.266395	-1.788358	 37.448990	-6.179291	-7.471364	 3.715659	 55.407270	-2.105487	-8.810366	 61.599560	 9.128390	 6.614002	 34.422580	 0.048641	 3.338708	-11.490280	-3.409025	 5.596007	-8.269456	-8.270232	 99.575350	 26.614860	-97.144120	-64.189250	 28.795810	 8.418101	-7.136271	-0.185475	 1.770750	-2.274009	 0.050675	-21.736370	-4.633793	-11.224500	-0.635820	 11.955180	 6.139387	-1.416439	-8.227976	-2.590687	 0.477863
-0.015586	 1.291427	 0.081338	 12.430650	-5.505759	-160.866800	-160.134900	 28.107100	-6.442167	 6.154962	-21.936020	 11.321580	 9.538481	 58.049450	-14.636850	 1.190949	 27.079420	-2.671216	 177.186200	 16.235470	 48.744460	-1.721628	-21.630410	 7.072301	-4.033584	 63.929470	 1.552914	-2.496016	 41.992270	 3.357579	-5.412669	 5.638340	 14.780480	-3.893789	 11.608790	 5.362540	 0.350865	-11.752660	 0.683727	-102.392700	 2.908604	 93.211490	 49.208100	 41.345880	-4.041576	 7.502307	-0.249401	-1.979775	 24.112560	 3.089772	 22.398370	 3.841759	 55.158880	-2.197128	-8.831561	 61.686600	 9.156819	 6.609702	 34.331200	 0.049128	 3.761012	-12.480370	-3.946193	 5.586955	-9.998130	-11.076360	 102.131700	 28.609640	-97.882670	-62.998280	 42.507410	 5.966258	-7.522940	-0.190223	 1.959653	 12.474070	-3.737687	-25.634080	-4.886443	 13.091770	-0.625296	 14.056310	 36.326500	-8.800203	-8.485272	 29.569800	-1.611045
-0.021748	 1.292438	 0.086800	 10.738120	-6.483254	-161.374700	-162.271500	 27.979330	-7.864870	 5.852170	-20.956130	 11.271150	 11.597590	 58.676470	-15.272150	 1.121406	 26.137090	-2.643740	 178.120700	 13.682170	 49.915290	-1.072285	-13.874670	 10.985720	-0.423395	 66.240960	-6.317832	-1.830746	 35.036350	 2.969698	-5.787591	 4.780683	 23.778020	-4.386850	 9.991820	 5.936795	 1.376891	-10.412680	-1.667376	-103.907100	 2.556649	 93.017120	 32.985270	 48.349410	 3.175700	 7.733316	-0.248196	-2.160751	 16.083180	 8.547522	 38.744220	 3.902846	 55.095360	-2.242374	-8.781481	 61.480160	 9.089599	 6.616495	 34.475790	 0.048389	 4.113494	-11.757490	-3.840491	 4.238361	-9.535601	-10.964320	 103.852800	 26.936840	-97.905970	-45.099440	 49.142060	-2.563993	-7.794612	-0.190787	 2.140621	 3.802435	-8.426288	-42.658310	-4.898681	 13.052040	-0.625215	 14.089510	 36.529920	-8.863596	-8.484222	 29.657380	-1.617264
-0.040110	 1.282154	 0.108552	 6.977049	-5.260282	-169.362000	-162.334100	 23.059880	-16.102160	 5.392233	-19.441950	 10.161970	 10.216040	 59.605250	-13.764440	 1.148966	 26.512330	-2.654496	 173.498700	 14.189530	 43.203120	-1.381681	-17.654270	 11.550090	 1.266040	 65.525050	-7.573705	-1.747014	 34.066310	 2.925996	-4.512434	 4.105632	 30.751240	-4.854519	 7.472843	 6.292723	 2.981452	-7.683290	-3.925620	-104.584300	 2.583479	 92.777190	 16.112170	 55.643780	 8.529396	 8.038477	-0.249544	-2.358667	 14.784540	 14.771900	 37.830620	 3.686063	 53.773110	-2.069815	-8.402511	 59.794280	 8.570135	 6.573053	 33.546280	 0.052817	 4.116268	-9.818316	-3.001373	 2.243104	-8.330181	-7.871415	 107.378800	 24.044270	-97.989460	-16.029020	 50.442710	-11.964170	-8.068119	-0.190580	 2.339117	-8.362097	-8.756691	-44.731490	-4.487687	 11.456100	-0.420535	 13.767390	 34.452030	-8.230721	-8.509318	 27.193660	-1.444843
-0.043568	 1.273501	 0.123115	 4.219274	-4.368286	-175.396300	-162.262000	 19.310000	-22.298570	 4.695854	-17.092850	 9.524501	 8.474555	 59.368010	-12.626080	 1.149161	 26.515030	-2.654571	 172.110400	 13.669990	 38.165160	-1.324320	-16.964290	 11.616320	 2.821750	 65.585120	-8.382224	-1.471589	 30.721100	 2.791427	-3.599841	 3.757864	 34.321770	-5.311919	 5.554870	 6.351816	 4.261921	-5.556612	-5.748816	-105.372400	 3.189394	 92.744150	 8.417126	 56.936680	 17.050600	 8.230604	-0.248863	-2.504061	 9.724907	 15.359670	 45.896150	 3.144881	 48.865330	-1.643040	-7.554741	 54.960070	 7.313737	 6.398045	 29.687190	 0.062076	 4.088447	-8.829649	-2.301591	 1.287016	-7.179156	-5.103777	 110.019800	 21.563360	-97.846140	 0.091141	 46.855220	-20.361560	-8.227225	-0.188762	 2.484813	 0.835418	-5.901294	-24.176890	-3.487958	 8.045405	 0.148624	 13.040500	 28.616160	-6.599860	-8.534963	 20.055300	-0.969063
-0.028269	 1.268140	 0.144661	 1.874456	-3.315259	 179.215100	-162.089700	 12.525230	-27.626170	 1.923139	-7.184358	 6.070419	 2.049637	 54.288430	-6.462525	 1.150037	 26.527000	-2.654918	 172.624300	 12.372300	 33.131860	-0.991711	-12.867940	 11.160490	 3.678360	 63.109870	-7.950610	-1.348492	 29.149360	 2.736119	-2.448110	 3.943154	 36.705900	-4.797186	 3.786125	 5.587214	 5.507839	-3.832994	-8.495829	-106.797700	 3.939850	 92.731290	 10.153270	 54.889510	 16.783120	 8.506595	-0.250087	-2.682430	 15.541440	 12.432190	 42.240510	 1.720116	 31.579580	-0.712034	-6.107069	 37.176250	 4.256273	 5.796512	 15.475050	-0.010576	 3.977401	-8.143037	-1.561625	 0.368596	-6.650837	-2.690624	 113.528400	 18.533500	-97.575610	 6.085164	 42.548320	-18.937070	-8.478901	-0.188763	 2.663629	 4.531837	 9.704369	-12.201040	-2.721431	 5.426999	 0.643718	 12.628990	 24.104850	-5.453097	-8.514692	 14.888920	-0.638476
-0.019351	 1.265111	 0.160005	 0.934879	-2.666255	 176.439700	-161.632800	 10.634610	-30.463030	 1.316045	-4.930679	 2.843263	-3.049474	 52.748020	-1.134224	 1.150855	 26.538160	-2.655243	 172.814500	 12.358460	 30.406610	-0.893172	-11.626320	 10.573910	 4.598687	 61.580310	-7.079268	-1.339701	 29.035420	 2.732286	-1.488119	 4.376622	 37.382130	-5.686525	 3.442800	 5.783442	 6.791814	-3.436715	-10.154450	-107.915000	 4.441454	 92.739880	 16.918730	 51.481460	 11.641880	 8.682787	-0.250731	-2.798892	 22.837940	 9.640997	 36.054150	 0.821196	 15.916750	-0.345939	-5.865829	 20.954760	 2.316793	 5.253717	 2.528877	-0.203101	 3.877191	-7.880630	-1.112450	-0.132180	-6.617771	-1.356923	 115.953500	 16.529050	-97.313520	 4.490992	 43.619960	-14.037510	-8.708316	-0.191319	 2.779965	 4.074534	 20.472650	-5.377792	-2.384947	 4.259129	 0.886707	 12.480660	 22.079980	-4.962907	-8.497670	 12.769610	-0.504514
-0.014822	 1.264749	 0.169669	 0.601460	-2.105772	 174.689400	-161.323800	 10.011880	-32.016450	 1.310740	-4.910835	 1.273856	-5.752939	 52.226050	 1.372963	 1.152252	 26.557130	-2.655797	 172.921800	 12.623390	 28.840960	-0.901112	-11.726640	 9.848116	 2.636928	 61.157640	-5.577855	-1.333640	 28.956530	 2.729654	-1.039737	 4.926766	 37.258720	-5.491959	 2.734320	 5.412737	 7.483650	-2.787741	-11.813880	-108.973000	 4.815026	 92.740150	 21.781610	 49.619610	 6.688306	 8.875333	-0.252163	-2.915563	 25.767080	 12.896210	 34.830920	 0.700792	 13.037600	-0.331718	-5.886522	 18.029550	 1.997466	 5.148445	 0.115440	-0.252286	 3.717729	-7.822394	-0.779126	-0.408876	-6.542669	-0.972505	 117.448300	 15.089810	-97.091840	 3.407551	 41.850880	-11.724560	-8.881763	-0.191642	 2.897007	 1.934914	 21.925250	-1.087315	-2.382081	 4.294680	 0.900786	 12.484910	 22.142260	-4.977797	-8.498143	 12.821540	-0.507793
-0.016558	 1.264307	 0.176084	 0.381808	-1.643088	 173.129300	-161.377900	 9.445892	-33.371590	 1.308305	-4.901783	-0.222148	-7.994059	 51.911080	 3.771141	 1.153554	 26.574810	-2.656314	 172.892400	 12.621150	 27.415140	-0.874241	-11.386150	 9.202644	 1.046732	 60.427120	-4.221443	-1.328136	 28.884760	 2.727270	-0.471874	 5.376191	 35.946730	-5.931707	 2.514245	 5.496232	 8.246613	-2.500024	-12.909280	-109.946700	 5.155763	 92.746060	 26.155870	 48.290740	 2.241432	 9.050575	-0.253713	-3.018851	 28.074190	 15.519400	 33.881600	 0.608750	 10.716300	-0.327938	-5.915188	 15.678760	 1.743616	 5.061869	-1.833618	-0.295268	 3.569060	-7.774920	-0.475039	-0.660584	-6.463645	-0.531381	 118.798000	 13.783540	-96.858340	 1.626519	 39.849100	-9.065207	-9.034451	-0.191882	 3.000685	 0.192590	 23.314180	 3.000998	-2.388296	 4.359103	 0.907645	 12.492620	 22.254620	-5.004682	-8.499091	 12.926560	-0.514422
-0.019160	 1.262094	 0.181956	 0.249585	-1.198576	 171.806900	-161.386400	 8.932725	-34.514290	 1.308764	-4.903554	-1.523399	-9.924286	 51.576080	 5.851378	 1.154777	 26.591400	-2.656799	 172.544400	 13.287200	 26.254820	-0.981894	-12.744720	 8.632099	 0.036040	 60.598660	-3.139450	-1.322894	 28.816340	 2.725007	 0.153334	 5.762092	 33.369450	-6.249529	 2.328574	 5.447145	 8.791931	-2.281187	-13.557550	-110.818900	 5.464226	 92.758460	 28.971410	 47.551090	-0.829656	 9.178386	-0.253583	-3.110781	 30.173480	 17.166720	 32.637700	 0.531312	 8.731626	-0.328176	-5.947952	 13.668970	 1.527778	 4.986612	-3.499235	-0.334391	 3.437631	-7.721702	-0.198619	-0.884289	-6.379999	-0.081878	 120.006500	 12.634640	-96.631870	-0.755245	 38.953430	-6.386289	-9.174190	-0.192241	 3.092615	-0.376920	 23.226480	 5.958356	-2.392745	 4.421202	 0.913278	 12.499880	 22.359470	-5.029807	-8.499893	 13.016410	-0.520095
-0.018299	 1.260175	 0.184636	 0.358047	-1.052318	 171.879600	-161.262100	 8.915456	-34.386300	 1.310400	-4.909640	-0.658195	-8.736507	 51.545390	 4.438378	 1.156257	 26.611400	-2.657382	 172.402300	 13.819700	 26.293480	-1.092600	-14.126950	 8.531895	 0.056110	 61.160680	-3.027941	-1.315562	 28.720640	 2.721853	 0.509368	 5.939471	 30.037020	-5.972712	 1.821642	 5.099693	 8.842612	-1.748029	-13.971730	-111.354000	 5.698278	 92.797010	 29.282610	 47.661570	-1.267584	 9.296685	-0.253292	-3.198605	 27.135000	 18.398320	 34.572470	 0.539020	 8.713122	-0.334349	-5.948306	 13.649600	 1.525699	 4.986485	-3.502028	-0.334458	 3.381046	-7.542931	 0.023092	-0.973760	-6.300341	-0.219915	 120.767500	 12.133810	-96.587880	-2.540912	 38.951080	-5.107277	-9.309871	-0.192709	 3.180359	 1.049672	 20.074170	 6.981580	-2.380983	 4.516064	 0.910089	 12.508190	 22.478500	-5.058355	-8.499904	 13.017580	-0.520168
-0.019391	 1.257933	 0.185737	 0.506023	-0.956953	 171.960000	-161.143600	 8.865751	-34.265980	 1.313407	-4.920769	 0.109625	-7.704841	 51.582750	 3.214263	 1.157654	 26.630280	-2.657932	 172.187600	 14.354840	 26.343670	-1.214664	-15.631540	 8.432018	 0.219490	 61.816220	-2.915486	-1.308652	 28.630300	 2.718891	 0.935583	 6.117234	 26.186240	-5.941885	 1.245664	 4.969518	 8.869419	-0.975256	-13.968940	-111.859500	 5.918905	 92.835410	 28.902230	 48.181180	-1.178144	 9.405994	-0.253061	-3.278064	 24.287150	 18.999430	 36.610570	 0.546295	 8.695651	-0.340175	-5.948641	 13.631320	 1.523736	 4.986364	-3.504665	-0.334522	 3.327009	-7.374363	 0.232475	-1.062081	-6.146368	-0.249478	 121.485200	 11.661480	-96.540200	-4.594170	 39.264180	-3.699490	-9.431995	-0.193222	 3.259959	 2.815546	 17.039650	 7.742793	-2.369874	 4.605615	 0.907060	 12.516090	 22.590850	-5.085344	-8.499914	 13.018680	-0.520237
